STARTFONT 2.1
FONT -local-Mints Strong-Medium-R-Normal--7-70-75-75-P-62-ISO8859-1
SIZE 7 75 75
FONTBOUNDINGBOX 8 8 0 -1
STARTPROPERTIES 17
FONT_DESCENT 2
FONT_ASCENT 7
FOUNDRY "local"
FAMILY_NAME "Mints Strong"
WEIGHT_NAME "Medium"
SLANT "R"
SETWIDTH_NAME "Normal"
ADD_STYLE_NAME ""
PIXEL_SIZE 7
POINT_SIZE 70
RESOLUTION_X 75
RESOLUTION_Y 75
SPACING "P"
AVERAGE_WIDTH 62
CHARSET_REGISTRY "ISO8859"
CHARSET_ENCODING "1"
_XMBDFED_INFO "Edited with xmbdfed 3.4."
ENDPROPERTIES
CHARS 95
STARTCHAR char32
ENCODING 32
SWIDTH 0 0
DWIDTH 5 0
BBX 0 0 0 0
BITMAP
ENDCHAR
STARTCHAR char33
ENCODING 33
SWIDTH 0 0
DWIDTH 3 0
BBX 1 6 1 -1
BITMAP
80
80
80
80
00
80
ENDCHAR
STARTCHAR char34
ENCODING 34
SWIDTH 0 0
DWIDTH 5 0
BBX 3 3 1 3
BITMAP
A0
A0
A0
ENDCHAR
STARTCHAR char35
ENCODING 35
SWIDTH 0 0
DWIDTH 7 0
BBX 5 5 1 0
BITMAP
50
D8
50
D8
50
ENDCHAR
STARTCHAR char36
ENCODING 36
SWIDTH 0 0
DWIDTH 7 0
BBX 5 7 1 -1
BITMAP
20
F0
A0
F8
28
F8
20
ENDCHAR
STARTCHAR char37
ENCODING 37
SWIDTH 0 0
DWIDTH 8 0
BBX 6 6 1 0
BITMAP
84
88
10
20
44
84
ENDCHAR
STARTCHAR char38
ENCODING 38
SWIDTH 0 0
DWIDTH 6 0
BBX 4 7 1 -1
BITMAP
20
F0
A0
F0
A0
F0
20
ENDCHAR
STARTCHAR char39
ENCODING 39
SWIDTH 0 0
DWIDTH 3 0
BBX 1 3 1 3
BITMAP
80
80
80
ENDCHAR
STARTCHAR char40
ENCODING 40
SWIDTH 0 0
DWIDTH 4 0
BBX 2 8 1 -1
BITMAP
40
80
80
80
80
80
80
40
ENDCHAR
STARTCHAR char41
ENCODING 41
SWIDTH 0 0
DWIDTH 4 0
BBX 2 8 1 -1
BITMAP
80
40
40
40
40
40
40
80
ENDCHAR
STARTCHAR char42
ENCODING 42
SWIDTH 0 0
DWIDTH 7 0
BBX 5 5 1 0
BITMAP
20
A8
70
A8
20
ENDCHAR
STARTCHAR char43
ENCODING 43
SWIDTH 0 0
DWIDTH 7 0
BBX 5 5 1 0
BITMAP
20
20
F8
20
20
ENDCHAR
STARTCHAR char44
ENCODING 44
SWIDTH 0 0
DWIDTH 3 0
BBX 1 3 1 -1
BITMAP
80
80
80
ENDCHAR
STARTCHAR char45
ENCODING 45
SWIDTH 0 0
DWIDTH 6 0
BBX 4 1 1 2
BITMAP
F0
ENDCHAR
STARTCHAR char46
ENCODING 46
SWIDTH 0 0
DWIDTH 3 0
BBX 1 2 1 0
BITMAP
80
80
ENDCHAR
STARTCHAR char47
ENCODING 47
SWIDTH 0 0
DWIDTH 9 0
BBX 7 7 1 -1
BITMAP
02
04
08
10
20
40
80
ENDCHAR
STARTCHAR char48
ENCODING 48
SWIDTH 0 0
DWIDTH 7 0
BBX 5 5 1 0
BITMAP
F8
88
88
88
F8
ENDCHAR
STARTCHAR char49
ENCODING 49
SWIDTH 0 0
DWIDTH 3 0
BBX 1 5 1 0
BITMAP
80
80
80
80
80
ENDCHAR
STARTCHAR char50
ENCODING 50
SWIDTH 0 0
DWIDTH 7 0
BBX 5 5 1 0
BITMAP
78
08
F8
80
F8
ENDCHAR
STARTCHAR char51
ENCODING 51
SWIDTH 0 0
DWIDTH 7 0
BBX 5 5 1 0
BITMAP
F8
08
78
08
F8
ENDCHAR
STARTCHAR char52
ENCODING 52
SWIDTH 0 0
DWIDTH 7 0
BBX 5 5 1 0
BITMAP
88
88
F8
08
08
ENDCHAR
STARTCHAR char53
ENCODING 53
SWIDTH 0 0
DWIDTH 7 0
BBX 5 5 1 0
BITMAP
F0
80
F8
08
F8
ENDCHAR
STARTCHAR char54
ENCODING 54
SWIDTH 0 0
DWIDTH 7 0
BBX 5 5 1 0
BITMAP
E0
80
F8
88
F8
ENDCHAR
STARTCHAR char55
ENCODING 55
SWIDTH 0 0
DWIDTH 6 0
BBX 5 5 1 0
BITMAP
F8
08
10
20
20
ENDCHAR
STARTCHAR char56
ENCODING 56
SWIDTH 0 0
DWIDTH 7 0
BBX 5 5 1 0
BITMAP
F8
88
F8
88
F8
ENDCHAR
STARTCHAR char57
ENCODING 57
SWIDTH 0 0
DWIDTH 7 0
BBX 5 5 1 0
BITMAP
F8
88
F8
08
08
ENDCHAR
STARTCHAR char58
ENCODING 58
SWIDTH 0 0
DWIDTH 3 0
BBX 1 5 1 0
BITMAP
80
80
00
80
80
ENDCHAR
STARTCHAR char59
ENCODING 59
SWIDTH 0 0
DWIDTH 3 0
BBX 1 6 1 -1
BITMAP
80
80
00
80
80
80
ENDCHAR
STARTCHAR char60
ENCODING 60
SWIDTH 0 0
DWIDTH 6 0
BBX 4 7 1 -1
BITMAP
10
20
40
80
40
20
10
ENDCHAR
STARTCHAR char61
ENCODING 61
SWIDTH 0 0
DWIDTH 6 0
BBX 4 3 1 1
BITMAP
F0
00
F0
ENDCHAR
STARTCHAR char62
ENCODING 62
SWIDTH 0 0
DWIDTH 6 0
BBX 4 7 1 -1
BITMAP
80
40
20
10
20
40
80
ENDCHAR
STARTCHAR char63
ENCODING 63
SWIDTH 0 0
DWIDTH 6 0
BBX 4 6 1 -1
BITMAP
F0
10
70
40
00
40
ENDCHAR
STARTCHAR char64
ENCODING 64
SWIDTH 0 0
DWIDTH 6 0
BBX 4 5 1 0
BITMAP
F0
90
B0
80
F0
ENDCHAR
STARTCHAR char97
ENCODING 65
SWIDTH 0 0
DWIDTH 7 0
BBX 5 5 1 0
BITMAP
F8
88
F8
88
88
ENDCHAR
STARTCHAR char98
ENCODING 66
SWIDTH 0 0
DWIDTH 7 0
BBX 5 5 1 0
BITMAP
F8
88
F8
88
F8
ENDCHAR
STARTCHAR char99
ENCODING 67
SWIDTH 0 0
DWIDTH 7 0
BBX 5 5 1 0
BITMAP
F8
80
80
80
F8
ENDCHAR
STARTCHAR char100
ENCODING 68
SWIDTH 0 0
DWIDTH 7 0
BBX 5 5 1 0
BITMAP
F0
88
88
88
F0
ENDCHAR
STARTCHAR char101
ENCODING 69
SWIDTH 0 0
DWIDTH 7 0
BBX 5 5 1 0
BITMAP
F8
80
F0
80
F8
ENDCHAR
STARTCHAR char102
ENCODING 70
SWIDTH 0 0
DWIDTH 7 0
BBX 5 5 1 0
BITMAP
F8
80
F0
80
80
ENDCHAR
STARTCHAR char103
ENCODING 71
SWIDTH 0 0
DWIDTH 7 0
BBX 5 5 1 0
BITMAP
E0
80
B8
88
F8
ENDCHAR
STARTCHAR char104
ENCODING 72
SWIDTH 0 0
DWIDTH 7 0
BBX 5 5 1 0
BITMAP
88
88
F8
88
88
ENDCHAR
STARTCHAR char105
ENCODING 73
SWIDTH 0 0
DWIDTH 3 0
BBX 1 5 1 0
BITMAP
80
80
80
80
80
ENDCHAR
STARTCHAR char106
ENCODING 74
SWIDTH 0 0
DWIDTH 5 0
BBX 3 5 1 0
BITMAP
20
20
20
20
E0
ENDCHAR
STARTCHAR char107
ENCODING 75
SWIDTH 0 0
DWIDTH 7 0
BBX 5 5 1 0
BITMAP
88
90
E0
90
88
ENDCHAR
STARTCHAR char108
ENCODING 76
SWIDTH 0 0
DWIDTH 6 0
BBX 4 5 1 0
BITMAP
80
80
80
80
F0
ENDCHAR
STARTCHAR char109
ENCODING 77
SWIDTH 0 0
DWIDTH 7 0
BBX 5 5 1 0
BITMAP
88
D8
A8
88
88
ENDCHAR
STARTCHAR char110
ENCODING 78
SWIDTH 0 0
DWIDTH 7 0
BBX 5 5 1 0
BITMAP
88
C8
A8
98
88
ENDCHAR
STARTCHAR char111
ENCODING 79
SWIDTH 0 0
DWIDTH 7 0
BBX 5 5 1 0
BITMAP
F8
88
88
88
F8
ENDCHAR
STARTCHAR char112
ENCODING 80
SWIDTH 0 0
DWIDTH 7 0
BBX 5 5 1 0
BITMAP
F8
88
F8
80
80
ENDCHAR
STARTCHAR char113
ENCODING 81
SWIDTH 0 0
DWIDTH 7 0
BBX 6 6 1 -1
BITMAP
F8
88
88
88
F8
0C
ENDCHAR
STARTCHAR char114
ENCODING 82
SWIDTH 0 0
DWIDTH 7 0
BBX 5 5 1 0
BITMAP
F8
88
F0
88
88
ENDCHAR
STARTCHAR char115
ENCODING 83
SWIDTH 0 0
DWIDTH 7 0
BBX 5 5 1 0
BITMAP
F0
80
F8
08
F8
ENDCHAR
STARTCHAR char116
ENCODING 84
SWIDTH 0 0
DWIDTH 7 0
BBX 5 5 1 0
BITMAP
F8
20
20
20
20
ENDCHAR
STARTCHAR char117
ENCODING 85
SWIDTH 0 0
DWIDTH 7 0
BBX 5 5 1 0
BITMAP
88
88
88
88
F8
ENDCHAR
STARTCHAR char118
ENCODING 86
SWIDTH 0 0
DWIDTH 7 0
BBX 5 5 1 0
BITMAP
88
90
A0
C0
80
ENDCHAR
STARTCHAR char119
ENCODING 87
SWIDTH 0 0
DWIDTH 7 0
BBX 5 5 1 0
BITMAP
88
88
A8
D8
88
ENDCHAR
STARTCHAR char120
ENCODING 88
SWIDTH 0 0
DWIDTH 7 0
BBX 5 5 1 0
BITMAP
88
50
20
50
88
ENDCHAR
STARTCHAR char121
ENCODING 89
SWIDTH 0 0
DWIDTH 7 0
BBX 5 5 1 0
BITMAP
88
50
20
20
20
ENDCHAR
STARTCHAR char122
ENCODING 90
SWIDTH 0 0
DWIDTH 7 0
BBX 5 5 1 0
BITMAP
F8
10
20
40
F8
ENDCHAR
STARTCHAR char91
ENCODING 91
SWIDTH 0 0
DWIDTH 5 0
BBX 3 7 1 -1
BITMAP
E0
80
80
80
80
80
E0
ENDCHAR
STARTCHAR char92
ENCODING 92
SWIDTH 0 0
DWIDTH 9 0
BBX 7 7 1 -1
BITMAP
80
40
20
10
08
04
02
ENDCHAR
STARTCHAR char93
ENCODING 93
SWIDTH 0 0
DWIDTH 5 0
BBX 3 7 1 -1
BITMAP
E0
20
20
20
20
20
E0
ENDCHAR
STARTCHAR char94
ENCODING 94
SWIDTH 0 0
DWIDTH 7 0
BBX 5 3 1 3
BITMAP
20
50
88
ENDCHAR
STARTCHAR char95
ENCODING 95
SWIDTH 0 0
DWIDTH 7 0
BBX 5 1 1 -1
BITMAP
F8
ENDCHAR
STARTCHAR char96
ENCODING 96
SWIDTH 0 0
DWIDTH 3 0
BBX 1 3 1 3
BITMAP
80
80
80
ENDCHAR
STARTCHAR char97
ENCODING 97
SWIDTH 0 0
DWIDTH 7 0
BBX 5 5 1 0
BITMAP
F8
88
F8
88
88
ENDCHAR
STARTCHAR char98
ENCODING 98
SWIDTH 0 0
DWIDTH 7 0
BBX 5 5 1 0
BITMAP
F8
88
F8
88
F8
ENDCHAR
STARTCHAR char99
ENCODING 99
SWIDTH 0 0
DWIDTH 7 0
BBX 5 5 1 0
BITMAP
F8
80
80
80
F8
ENDCHAR
STARTCHAR char100
ENCODING 100
SWIDTH 0 0
DWIDTH 7 0
BBX 5 5 1 0
BITMAP
F0
88
88
88
F0
ENDCHAR
STARTCHAR char101
ENCODING 101
SWIDTH 0 0
DWIDTH 7 0
BBX 5 5 1 0
BITMAP
F8
80
F0
80
F8
ENDCHAR
STARTCHAR char102
ENCODING 102
SWIDTH 0 0
DWIDTH 7 0
BBX 5 5 1 0
BITMAP
F8
80
F0
80
80
ENDCHAR
STARTCHAR char103
ENCODING 103
SWIDTH 0 0
DWIDTH 7 0
BBX 5 5 1 0
BITMAP
E0
80
B8
88
F8
ENDCHAR
STARTCHAR char104
ENCODING 104
SWIDTH 0 0
DWIDTH 7 0
BBX 5 5 1 0
BITMAP
88
88
F8
88
88
ENDCHAR
STARTCHAR char105
ENCODING 105
SWIDTH 0 0
DWIDTH 3 0
BBX 1 5 1 0
BITMAP
80
80
80
80
80
ENDCHAR
STARTCHAR char106
ENCODING 106
SWIDTH 0 0
DWIDTH 5 0
BBX 3 5 1 0
BITMAP
20
20
20
20
E0
ENDCHAR
STARTCHAR char107
ENCODING 107
SWIDTH 0 0
DWIDTH 7 0
BBX 5 5 1 0
BITMAP
88
90
E0
90
88
ENDCHAR
STARTCHAR char108
ENCODING 108
SWIDTH 0 0
DWIDTH 6 0
BBX 4 5 1 0
BITMAP
80
80
80
80
F0
ENDCHAR
STARTCHAR char109
ENCODING 109
SWIDTH 0 0
DWIDTH 7 0
BBX 5 5 1 0
BITMAP
88
D8
A8
88
88
ENDCHAR
STARTCHAR char110
ENCODING 110
SWIDTH 0 0
DWIDTH 7 0
BBX 5 5 1 0
BITMAP
88
C8
A8
98
88
ENDCHAR
STARTCHAR char111
ENCODING 111
SWIDTH 0 0
DWIDTH 7 0
BBX 5 5 1 0
BITMAP
F8
88
88
88
F8
ENDCHAR
STARTCHAR char112
ENCODING 112
SWIDTH 0 0
DWIDTH 7 0
BBX 5 5 1 0
BITMAP
F8
88
F8
80
80
ENDCHAR
STARTCHAR char113
ENCODING 113
SWIDTH 0 0
DWIDTH 7 0
BBX 6 6 1 -1
BITMAP
F8
88
88
88
F8
0C
ENDCHAR
STARTCHAR char114
ENCODING 114
SWIDTH 0 0
DWIDTH 7 0
BBX 5 5 1 0
BITMAP
F8
88
F0
88
88
ENDCHAR
STARTCHAR char115
ENCODING 115
SWIDTH 0 0
DWIDTH 7 0
BBX 5 5 1 0
BITMAP
F0
80
F8
08
F8
ENDCHAR
STARTCHAR char116
ENCODING 116
SWIDTH 0 0
DWIDTH 7 0
BBX 5 5 1 0
BITMAP
F8
20
20
20
20
ENDCHAR
STARTCHAR char117
ENCODING 117
SWIDTH 0 0
DWIDTH 7 0
BBX 5 5 1 0
BITMAP
88
88
88
88
F8
ENDCHAR
STARTCHAR char118
ENCODING 118
SWIDTH 0 0
DWIDTH 7 0
BBX 5 5 1 0
BITMAP
88
90
A0
C0
80
ENDCHAR
STARTCHAR char119
ENCODING 119
SWIDTH 0 0
DWIDTH 7 0
BBX 5 5 1 0
BITMAP
88
88
A8
D8
88
ENDCHAR
STARTCHAR char120
ENCODING 120
SWIDTH 0 0
DWIDTH 7 0
BBX 5 5 1 0
BITMAP
88
50
20
50
88
ENDCHAR
STARTCHAR char121
ENCODING 121
SWIDTH 0 0
DWIDTH 7 0
BBX 5 5 1 0
BITMAP
88
50
20
20
20
ENDCHAR
STARTCHAR char122
ENCODING 122
SWIDTH 0 0
DWIDTH 7 0
BBX 5 5 1 0
BITMAP
F8
10
20
40
F8
ENDCHAR
STARTCHAR char123
ENCODING 123
SWIDTH 0 0
DWIDTH 7 0
BBX 5 7 1 -1
BITMAP
38
20
20
E0
20
20
38
ENDCHAR
STARTCHAR char124
ENCODING 124
SWIDTH 0 0
DWIDTH 3 0
BBX 1 7 1 -1
BITMAP
80
80
80
80
80
80
80
ENDCHAR
STARTCHAR char125
ENCODING 125
SWIDTH 0 0
DWIDTH 7 0
BBX 5 7 1 -1
BITMAP
E0
20
20
38
20
20
E0
ENDCHAR
STARTCHAR char126
ENCODING 126
SWIDTH 0 0
DWIDTH 7 0
BBX 5 3 1 2
BITMAP
40
A8
10
ENDCHAR
ENDFONT
